<svg xmlns="http://www.w3.org/2000/svg" width="250" height="205" fill="none" viewBox="0 0 250 205">
<!-- SVG created with Arrow, by QuiverAI (https://quiver.ai) -->
  <path d="m196.8 158-72.25 41.96-71.48-41.96 7.99-5.23-8.65-6.6 7.38-4.81-6.97-5.97 54.84-31.91v4.25l-48.61 27.91 65.25 38.68 64.5-38.18-3.74-25.06-21.8-14.06 0.25-0.95 22.3 14.57 5.97 28.67-4.23 3.25 9.25 5.48-8 4.73 8 5.23z" fill="#153E5C"/>
  <path d="m58.76 157.6 5.23-3.25 60.5 35.7 64.5-36.2 3.99 3.25-68.49 39.19-65.73-38.69z" fill="url(#paint0_linear_1852_12502)"/>
  <path d="m57.76 146.1 5.23-3.25 61.75 36.45 60-34.2 3.99 2.75-63.99 37-66.98-38.75z" fill="url(#paint1_linear_1852_12502)"/>
  <path d="m59.75 135.9 64.24 38.18 63.99-38.43-16.74-8.49c-3.23-1.63-2.23-5.13-0.5-6.5l13.49-10.5-20.76-13.08-0.25-0.5 22.55 14.07-14.53 11.51c-2.25 1.87-2 4.49 0.5 5.99l17.99 8.99-1.5-26.49-2.96-0.49-14.78 10.75c-2.75 2.07-3.25 6.25 0.75 8.24l15.99 7.99-63.49 37.94-63.99-39.18z" fill="url(#paint2_linear_1852_12502)"/>
  <path d="m184.7 110.7 4 24.49-1 1-14.49-8.49c-2.75-1.5-2.5-3.99-0.75-5.49l12.24-11.51z" fill="url(#paint3_linear_1852_12502)" stroke="#153E5C" stroke-linecap="round" stroke-linejoin="round" stroke-width="1.2"/>
  <path d="m143 108.4 17.99 10.75" opacity=".5" stroke="#2DB5B1" stroke-linecap="round" stroke-width="3.2"/>
  <path d="m142.2 118.7 29.24 17.98" opacity=".5" stroke="#5BAAC7" stroke-linecap="round" stroke-width="3.2"/>
  <path d="m135.5 126.9 28.24 14.99" opacity=".5" stroke="#5BAAC7" stroke-linecap="round" stroke-width="3.2"/>
  <path d="m132.2 134.7 20.99 11.99" opacity=".5" stroke="#5BAAC7" stroke-linecap="round" stroke-width="3.2"/>
  <path d="m127.2 142.2 16.99 9.99" opacity=".5" stroke="#5BAAC7" stroke-linecap="round" stroke-width="3.2"/>
  <path d="m84.25 133.4 4.24-4.5 47.98 27.73-2 1.5-50.22-24.73z" fill="url(#paint4_linear_1852_12502)" opacity=".7"/>
  <path d="m96.49 123.4 21.49 10.49-11.49-15.24" opacity=".7" stroke="#5BAAC7" stroke-linecap="round" stroke-width="3.2"/>
  <path d="m131 100.4c5.49 1.5 6.99 10.74 1.99 19.73l-1-3.74-7.49 20.73-9.75-19.98-0.75 2.99c-3.49-6.74-1-18.23 4.75-19.23 3.75-0.75 8.49-1.5 12.25-0.5z" fill="url(#paint5_linear_1852_12502)" stroke="#D44E51" stroke-linecap="round" stroke-linejoin="round" stroke-width="2"/>
  <path d="m124.2 111.4 4.25-1.5 1.5 3.75-5.5 13.99-6.5-13.99 1-3.25 5.25 1z" fill="#F9C585"/>
  <path d="m144.7 65.49c1.5 0.75 13.24 9.24 10.49 25.23-1.25 7.24-3.49 12.98-3.49 12.98-5-6.49-9-10.49-14.24-9.74l1.49-29.22 5.75 0.75z" fill="url(#paint6_linear_1852_12502)" stroke="#0B385A" stroke-linecap="round" stroke-linejoin="round" stroke-width="2"/>
  <path d="m104.5 66.24c-2.25 1-11.24 7.74-10.74 20.48 0.25 6.74 2.5 14.98 2.5 14.98 3.49-7.74 7.99-12.48 12.48-12.23l-2.74-23.73-1.5 0.5z" fill="url(#paint7_linear_1852_12502)" stroke="#0B385A" stroke-linecap="round" stroke-linejoin="round" stroke-width="2"/>
  <path d="m124.5 8c-14.24 17.48-21.49 30.47-20.49 51.7 0.25 8.24 4.74 31.02 7.74 34.51l0.5 5.24 21.74-0.99 1.75-6.74c3-3.5 8.75-20.49 8.75-36.47 0-16.78-9.5-35.76-19.99-47.25z" fill="#F0FDFF" stroke="#0B385A" stroke-linecap="round" stroke-linejoin="round" stroke-width="2"/>
  <path d="m112.2 27.73c5.5 1.75 15.49 1.5 22.99-0.5-3.75-7.24-8.49-13.98-10.99-16.98-4 4.49-9.75 12.98-12 17.48z" fill="#F9C585" stroke="#0B385A" stroke-linecap="round" stroke-linejoin="round" stroke-width="2"/>
  <path d="m124.2 13.25-5.25 14.73 3-0.5 2.75-9.24 5.99 8.74 2.75-0.5-9.24-13.23z" fill="#DF4841"/>
  <path d="m136 28.23c4 5.74 8 19.23 7 31.47-1 10.79-6.75 28.02-8.25 31.27l2.5-3.5c2.25-4.74 6.5-18.98 6.75-29.98 0.25-11.28-4.75-24.27-8-29.26z" fill="#94CAE8" opacity=".2"/>
  <path d="m133.7 50.96c0 6.74-5.49 10.24-9.24 10.24-5.25 0-9.5-4.75-9.5-10.24 0-6.25 5-10.24 9.5-10.24 5.5 0 9.24 4.74 9.24 10.24z" fill="url(#paint8_linear_1852_12502)" stroke="#0B385A" stroke-linecap="round" stroke-linejoin="round" stroke-width="3"/>
  <path d="m125.7 48.96c0 3.12-2.5 4.49-4 4.49-2.5 0-3.5-2.24-3.5-4.49 0-2.5 2-3.75 3.5-3.75 2.5 0 4 1.75 4 3.75z" fill="#94E8F2" fill-opacity=".81"/>
  <path d="m124 68.99c4.24 0 4.49 16.73 4.49 21.23l-0.75 9.24-6.99 0.24c-1.5-4.49-2.25-21.72 0.75-28.72 0.75-1.24 1.5-1.99 2.5-1.99z" fill="#0B385A"/>
  <path d="m123.7 73.48c1.75 0 2 12.99 1.5 17.24l-1 5.99h-1.5c-1-3.25-1.5-11.24-0.25-18.98 0.25-2 0.5-4.25 1.25-4.25z" fill="#51BDD2"/>
  <path d="m112.5 92.21 23.49-1.49-1 8.74-9.49 0.99-11.75-0.99-1.25-7.25z" fill="#0B385A"/>
  <path d="m123.7 98.21c2.5 0 3.49 2.24 3.49 3.99 0 2.75-1.74 5.25-3.49 5.25-2.25 0-3.5-2.25-3.5-4.5 0-2.75 0.75-4.74 3.5-4.74z" fill="#0B385A"/>
  <path d="m142 86.72c4-0.5 8.74 3.25 9.99 9.74l-1.25 2.74c-2.74-4.74-6.74-7.73-10.74-7.98l2-4.5z" fill="#000035" opacity=".2"/>
  <path d="m80.01 68.24v29.22" opacity=".3" stroke="#94E8F2" stroke-linecap="round" stroke-width="4"/>
  <path d="m66.77 90.72v27.22" opacity=".7" stroke="url(#paint9_linear_1852_12502)" stroke-linecap="round" stroke-width="4"/>
  <path d="m164.5 45.21v13.49" opacity=".7" stroke="url(#paint10_linear_1852_12502)" stroke-linecap="round" stroke-width="3.5"/>
  <path d="m178 65.49v29.97" opacity=".7" stroke="url(#paint11_linear_1852_12502)" stroke-linecap="round" stroke-width="4"/>
  <path d="m80.26 61.99v0" opacity=".7" stroke="#74D5E1" stroke-linecap="round" stroke-width="5"/>
  <path d="m167.5 75.98v0" opacity=".7" stroke="#2394B0" stroke-linecap="round" stroke-width="5"/>
  <path d="m29.31 220.1c-3.22-2.23-5.76-2.95-9.62-2.95-4.38 0-6.78 1.3-6.78 3.6 0 2.27 1.81 3.1 7.95 4.2 7.32 1.4 9.86 3.8 9.86 8.5 0 5.76-4.24 9.62-12.24 9.62-4.8 0-8.4-1.15-12.48-3.55l2.68-5.31c3.33 2.64 6.33 3.57 10.23 3.57 4.2 0 6.33-1.51 6.33-3.86 0-2.07-1.61-3.12-7.42-4.37-7.11-1.61-10.23-3.7-10.23-8.8 0-5.4 4.75-9.78 12.42-9.78 4.9 0 8.17 0.83 10.44 2.49l-1.14 6.64z" fill="#153E5C"/>
  <path d="m55.72 228v14.42h-6.31v-3.22c-1.46 2.49-3.77 3.84-7.04 3.84-5.61 0-8.56-3-8.56-7.12 0-4.75 3.22-7.38 9.4-7.38h6.2v-0.62c0-2.9-1.8-4.41-5.25-4.41-2.4 0-4.47 0.66-6.78 2.12l-2.53-4.91c2.9-1.65 5.85-2.48 10.28-2.48 6.69 0 10.59 2.95 10.59 9.76zm-6.31 5.42v-0.93h-4.7c-3 0-4.52 0.98-4.52 3.11 0 1.92 1.47 3.07 3.92 3.07 3.05 0 5.12-1.93 5.3-5.25z" fill="#153E5C"/>
  <path d="m60.81 210h5.96v32.46h-5.96v-32.46z" fill="#153E5C"/>
  <path d="m94.97 232.3h-17.71c0.57 3.75 3.06 5.62 7.09 5.62 2.54 0 4.36-0.83 5.88-2.29l3.59 4.33c-2.49 2.07-5.49 3.05-9.57 3.05-8.31 0-13.5-4.99-13.5-12.41 0-7.17 4.99-12.39 12.36-12.39 7.53 0 12.07 5.53 11.86 14.09zm-17.66-3.38h11.6c-0.67-3.59-2.69-5.7-5.8-5.7-3.16 0-5.18 2.11-5.8 5.7z" fill="#153E5C"/>
  <path d="m117.1 220.5-1.66 5.17c-2.59-1.41-5.22-2.22-7.86-2.22-2.45 0-3.64 0.76-3.64 2.27 0 1.2 0.82 1.82 4.79 2.49 6.23 1.09 8.63 3.21 8.63 7.49 0 4.49-3.54 7.33-10.41 7.33-4.02 0-7.29-0.93-9.73-2.49l1.92-5.15c2.4 1.76 5.24 2.74 8.24 2.74s4.2-0.88 4.2-2.43c0-1.31-1.03-1.98-5.06-2.75-6.08-1.2-8.15-3.07-8.15-7.23 0-4.59 3.32-7.33 9.74-7.33 3.64 0 6.64 0.83 8.99 2.11z" fill="#153E5C"/>
  <path d="m147.6 233.9c0 5.52-3.86 8.48-10.78 8.48h-16.07v-31.27h15.86c7.13 0 10.13 3.27 10.13 8.18 0 2.9-1.25 5.16-3.37 6.62 2.74 1.24 4.23 3.88 4.23 7.99zm-20.67-17.21v7.49h8.61c3.22 0 4.47-1.4 4.47-3.99 0-2.34-1.36-3.5-4.47-3.5h-8.61zm8.71 20.11c3.8 0 5.26-1.5 5.26-4.19s-1.56-4.04-5.26-4.04h-8.71v8.23h8.71z" fill="#153E5C"/>
  <path d="m174.7 230.6c0 7.42-5.29 12.41-12.36 12.41s-12.36-4.99-12.36-12.41c0-7.17 5.29-12.39 12.36-12.39s12.36 5.22 12.36 12.39zm-18.44 0c0 4.49 2.64 7.17 6.08 7.17 3.7 0 6.1-2.84 6.1-7.17 0-4.31-2.4-7.17-6.1-7.17s-6.08 3-6.08 7.17z" fill="#153E5C"/>
  <path d="m202.4 230.6c0 7.42-5.29 12.41-12.36 12.41s-12.36-4.99-12.36-12.41c0-7.17 5.29-12.39 12.36-12.39s12.36 5.22 12.36 12.39zm-18.44 0c0 4.49 2.64 7.17 6.08 7.17 3.7 0 6.1-2.84 6.1-7.17 0-4.31-2.4-7.17-6.1-7.17s-6.08 3-6.08 7.17z" fill="#153E5C"/>
  <path d="m224.4 220.5-1.66 5.17c-2.59-1.41-5.22-2.22-7.86-2.22-2.45 0-3.64 0.76-3.64 2.27 0 1.2 0.82 1.82 4.79 2.49 6.23 1.09 8.63 3.21 8.63 7.49 0 4.49-3.54 7.33-10.41 7.33-4.02 0-7.29-0.93-9.73-2.49l1.92-5.15c2.4 1.76 5.24 2.74 8.24 2.74s4.2-0.88 4.2-2.43c0-1.31-1.03-1.98-5.06-2.75-6.08-1.2-8.15-3.07-8.15-7.23 0-4.59 3.32-7.33 9.74-7.33 3.64 0 6.64 0.83 8.99 2.11z" fill="#153E5C"/>
  <path d="m244.2 236.3 1.25 5.19c-2.07 1-4.04 1.52-6.44 1.52-5.52 0-7.96-3.32-7.96-9.04v-9.97h-4.18v-5.01h4.33v-6.23h5.97v6.23h5.71v5.01h-5.71v9.24c0 2.95 1.25 4.31 3.55 4.31 1.1 0 2.19-0.42 3.48-1.25z" fill="#153E5C"/>
  <defs>
    <linearGradient id="paint0_linear_1852_12502" x1="125.9" x2="125.9" y1="154.3" y2="196.2" gradientUnits="userSpaceOnUse">
      <stop stop-color="#94D4F0" offset="0"/>
      <stop stop-color="#5786A7" offset="1"/>
    </linearGradient>
    <linearGradient id="paint1_linear_1852_12502" x1="123.2" x2="123.2" y1="142.8" y2="184.8" gradientUnits="userSpaceOnUse">
      <stop stop-color="#94D4F0" offset="0"/>
      <stop stop-color="#5786A7" offset="1"/>
    </linearGradient>
    <linearGradient id="paint2_linear_1852_12502" x1="123.7" x2="123.7" y1="96.61" y2="175.1" gradientUnits="userSpaceOnUse">
      <stop stop-color="#F0FDFF" offset="0"/>
      <stop stop-color="#FEFFFE" offset="1"/>
    </linearGradient>
    <linearGradient id="paint3_linear_1852_12502" x1="180.2" x2="180.2" y1="110.7" y2="136.7" gradientUnits="userSpaceOnUse">
      <stop stop-color="#94D4F0" offset="0"/>
      <stop stop-color="#5786A7" offset="1"/>
    </linearGradient>
    <linearGradient id="paint4_linear_1852_12502" x1="110.4" x2="110.4" y1="128.9" y2="158.2" gradientUnits="userSpaceOnUse">
      <stop stop-color="#5790B2" offset="0"/>
      <stop stop-color="#5786A7" offset="1"/>
    </linearGradient>
    <linearGradient id="paint5_linear_1852_12502" x1="124" x2="124" y1="99.95" y2="137.2" gradientUnits="userSpaceOnUse">
      <stop stop-color="#DF4841" offset="0"/>
      <stop stop-color="#F9C585" offset=".5104"/>
      <stop stop-color="#DF4841" offset="1"/>
    </linearGradient>
    <linearGradient id="paint6_linear_1852_12502" x1="145" x2="145" y1="64.74" y2="103.7" gradientUnits="userSpaceOnUse">
      <stop stop-color="#246289" offset="0"/>
      <stop stop-color="#004967" offset="1"/>
    </linearGradient>
    <linearGradient id="paint7_linear_1852_12502" x1="101.1" x2="101.1" y1="65.74" y2="101.7" gradientUnits="userSpaceOnUse">
      <stop stop-color="#246289" offset="0"/>
      <stop stop-color="#004967" offset="1"/>
    </linearGradient>
    <linearGradient id="paint8_linear_1852_12502" x1="124.4" x2="124.4" y1="40.72" y2="61.2" gradientUnits="userSpaceOnUse">
      <stop stop-color="#004967" offset="0"/>
      <stop stop-color="#246289" offset="1"/>
    </linearGradient>
    <linearGradient id="paint9_linear_1852_12502" x1="67.77" x2="67.77" y1="90.72" y2="117.9" gradientUnits="userSpaceOnUse">
      <stop stop-color="#5BC6D1" offset="0"/>
      <stop stop-color="#237891" offset="1"/>
    </linearGradient>
    <linearGradient id="paint10_linear_1852_12502" x1="165" x2="165" y1="45.21" y2="58.7" gradientUnits="userSpaceOnUse">
      <stop stop-color="#5BC6D1" offset="0"/>
      <stop stop-color="#237891" offset="1"/>
    </linearGradient>
    <linearGradient id="paint11_linear_1852_12502" x1="178.5" x2="178.5" y1="65.49" y2="95.46" gradientUnits="userSpaceOnUse">
      <stop stop-color="#5BC6D1" offset="0"/>
      <stop stop-color="#237891" offset="1"/>
    </linearGradient>
  </defs>
</svg>
